<svg preserveAspectRatio="none" width="100%" height="100%" overflow="visible" style="display: block;" viewBox="0 0 13 290" fill="none" xmlns="http://www.w3.org/2000/svg">
<g id="volume ticks" filter="url(#filter0_i_0_4)">
<path d="M12 288C12.5522 288 13 288.448 13 289C13 289.552 12.5522 290 12 290H1C0.447715 290 4.82823e-08 289.552 0 289C5.65978e-07 288.448 0.447716 288 1 288H12ZM1 284C1.55225 284 2 284.448 2 285C2 285.552 1.55225 286 1 286C0.447715 286 4.82823e-08 285.552 0 285C1.0771e-06 284.448 0.447716 284 1 284ZM1 281C1.55225 281 2 281.448 2 282C2 282.552 1.55225 283 1 283C0.447715 283 4.82823e-08 282.552 0 282C1.0771e-06 281.448 0.447716 281 1 281ZM1 278C1.55225 278 2 278.448 2 279C2 279.552 1.55225 280 1 280C0.447715 280 4.82823e-08 279.552 0 279C1.0771e-06 278.448 0.447716 278 1 278ZM1 275C1.55225 275 2 275.448 2 276C2 276.552 1.55225 277 1 277C0.447715 277 4.82823e-08 276.552 0 276C1.0771e-06 275.448 0.447716 275 1 275ZM1 272C1.55225 272 2 272.448 2 273C2 273.552 1.55225 274 1 274C0.447715 274 4.82823e-08 273.552 0 273C1.0771e-06 272.448 0.447716 272 1 272ZM1 269C1.55225 269 2 269.448 2 270C2 270.552 1.55225 271 1 271C0.447715 271 4.82823e-08 270.552 0 270C1.0771e-06 269.448 0.447716 269 1 269ZM1 266C1.55225 266 2 266.448 2 267C2 267.552 1.55225 268 1 268C0.447715 268 4.82823e-08 267.552 0 267C1.0771e-06 266.448 0.447716 266 1 266ZM1 263C1.55225 263 2 263.448 2 264C2 264.552 1.55225 265 1 265C0.447715 265 4.82823e-08 264.552 0 264C1.33482e-06 263.448 0.447716 263 1 263ZM1 260C1.55225 260 2 260.448 2 261C2 261.552 1.55225 262 1 262C0.447715 262 4.82823e-08 261.552 0 261C1.20596e-06 260.448 0.447716 260 1 260ZM12 256C12.5523 256 13 256.448 13 257C13 257.552 12.5523 258 12 258H1C0.447726 258 4.82816e-08 257.552 0 257C5.65905e-07 256.448 0.447726 256 1 256H12ZM1 252C1.55225 252 2 252.448 2 253C2 253.552 1.55225 254 1 254C0.447715 254 4.82823e-08 253.552 0 253C1.0771e-06 252.448 0.447716 252 1 252ZM1 249C1.55225 249 2 249.448 2 250C2 250.552 1.55225 251 1 251C0.447715 251 4.82823e-08 250.552 0 250C1.0771e-06 249.448 0.447716 249 1 249ZM1 246C1.55225 246 2 246.448 2 247C2 247.552 1.55225 248 1 248C0.447715 248 4.82823e-08 247.552 0 247C1.0771e-06 246.448 0.447716 246 1 246ZM1 243C1.55225 243 2 243.448 2 244C2 244.552 1.55225 245 1 245C0.447715 245 4.82823e-08 244.552 0 244C1.0771e-06 243.448 0.447716 243 1 243ZM1 240C1.55225 240 2 240.448 2 241C2 241.552 1.55225 242 1 242C0.447715 242 4.82823e-08 241.552 0 241C1.0771e-06 240.448 0.447716 240 1 240ZM1 237C1.55225 237 2 237.448 2 238C2 238.552 1.55225 239 1 239C0.447715 239 4.82823e-08 238.552 0 238C1.0771e-06 237.448 0.447716 237 1 237ZM1 234C1.55225 234 2 234.448 2 235C2 235.552 1.55225 236 1 236C0.447715 236 4.82823e-08 235.552 0 235C1.0771e-06 234.448 0.447716 234 1 234ZM1 231C1.55225 231 2 231.448 2 232C2 232.552 1.55225 233 1 233C0.447715 233 4.82823e-08 232.552 0 232C1.33482e-06 231.448 0.447716 231 1 231ZM1 228C1.55225 228 2 228.448 2 229C2 229.552 1.55225 230 1 230C0.447715 230 4.82823e-08 229.552 0 229C1.20596e-06 228.448 0.447716 228 1 228ZM12 224C12.5523 224 13 224.448 13 225C13 225.552 12.5523 226 12 226H1C0.447724 226 4.82817e-08 225.552 0 225C5.65909e-07 224.448 0.447724 224 1 224H12ZM1 220C1.55225 220 2 220.448 2 221C2 221.552 1.55225 222 1 222C0.447715 222 4.82823e-08 221.552 0 221C1.0771e-06 220.448 0.447716 220 1 220ZM1 217C1.55225 217 2 217.448 2 218C2 218.552 1.55225 219 1 219C0.447715 219 4.82823e-08 218.552 0 218C1.0771e-06 217.448 0.447716 217 1 217ZM1 214C1.55225 214 2 214.448 2 215C2 215.552 1.55225 216 1 216C0.447715 216 4.82823e-08 215.552 0 215C1.0771e-06 214.448 0.447716 214 1 214ZM1 211C1.55225 211 2 211.448 2 212C2 212.552 1.55225 213 1 213C0.447715 213 4.82823e-08 212.552 0 212C1.0771e-06 211.448 0.447716 211 1 211ZM1 208C1.55225 208 2 208.448 2 209C2 209.552 1.55225 210 1 210C0.447715 210 4.82823e-08 209.552 0 209C1.0771e-06 208.448 0.447716 208 1 208ZM1 205C1.55225 205 2 205.448 2 206C2 206.552 1.55225 207 1 207C0.447715 207 4.82823e-08 206.552 0 206C1.0771e-06 205.448 0.447716 205 1 205ZM1 202C1.55225 202 2 202.448 2 203C2 203.552 1.55225 204 1 204C0.447715 204 4.82823e-08 203.552 0 203C1.0771e-06 202.448 0.447716 202 1 202ZM1 199C1.55225 199 2 199.448 2 200C2 200.552 1.55225 201 1 201C0.447715 201 4.82823e-08 200.552 0 200C1.33483e-06 199.448 0.447716 199 1 199ZM1 196C1.55225 196 2 196.448 2 197C2 197.552 1.55225 198 1 198C0.447715 198 4.82823e-08 197.552 0 197C1.20597e-06 196.448 0.447716 196 1 196ZM12 192C12.5523 192 13 192.448 13 193C13 193.552 12.5523 194 12 194H1C0.447724 194 4.82817e-08 193.552 0 193C5.65909e-07 192.448 0.447724 192 1 192H12ZM1 188C1.55225 188 2 188.448 2 189C2 189.552 1.55225 190 1 190C0.447715 190 4.82823e-08 189.552 0 189C1.07711e-06 188.448 0.447716 188 1 188ZM1 185C1.55225 185 2 185.448 2 186C2 186.552 1.55225 187 1 187C0.447715 187 4.82823e-08 186.552 0 186C1.07711e-06 185.448 0.447716 185 1 185ZM1 182C1.55225 182 2 182.448 2 183C2 183.552 1.55225 184 1 184C0.447715 184 4.82823e-08 183.552 0 183C1.07711e-06 182.448 0.447716 182 1 182ZM1 179C1.55225 179 2 179.448 2 180C2 180.552 1.55225 181 1 181C0.447715 181 4.82823e-08 180.552 0 180C1.07711e-06 179.448 0.447716 179 1 179ZM1 176C1.55225 176 2 176.448 2 177C2 177.552 1.55225 178 1 178C0.447715 178 4.82823e-08 177.552 0 177C1.07711e-06 176.448 0.447716 176 1 176ZM1 173C1.55225 173 2 173.448 2 174C2 174.552 1.55225 175 1 175C0.447715 175 4.82823e-08 174.552 0 174C1.07711e-06 173.448 0.447716 173 1 173ZM1 170C1.55225 170 2 170.448 2 171C2 171.552 1.55225 172 1 172C0.447715 172 4.82823e-08 171.552 0 171C1.07711e-06 170.448 0.447716 170 1 170ZM1 167C1.55225 167 2 167.448 2 168C2 168.552 1.55225 169 1 169C0.447715 169 4.82823e-08 168.552 0 168C1.33483e-06 167.448 0.447716 167 1 167ZM1 164C1.55225 164 2 164.448 2 165C2 165.552 1.55225 166 1 166C0.447715 166 4.82823e-08 165.552 0 165C1.20597e-06 164.448 0.447716 164 1 164ZM12 160C12.5522 160 13 160.448 13 161C13 161.552 12.5522 162 12 162H1C0.447715 162 4.82823e-08 161.552 0 161C5.65985e-07 160.448 0.447716 160 1 160H12ZM1 156C1.55224 156 2 156.448 2 157C2 157.552 1.55224 158 1 158C0.447715 158 4.82823e-08 157.552 0 157C1.07711e-06 156.448 0.447716 156 1 156ZM1 153C1.55224 153 2 153.448 2 154C2 154.552 1.55224 155 1 155C0.447715 155 4.82823e-08 154.552 0 154C1.07711e-06 153.448 0.447716 153 1 153ZM1 150C1.55224 150 2 150.448 2 151C2 151.552 1.55224 152 1 152C0.447715 152 4.82823e-08 151.552 0 151C1.07711e-06 150.448 0.447716 150 1 150ZM1 147C1.55224 147 2 147.448 2 148C2 148.552 1.55224 149 1 149C0.447715 149 4.82823e-08 148.552 0 148C1.07711e-06 147.448 0.447716 147 1 147ZM1 144C1.55224 144 2 144.448 2 145C2 145.552 1.55224 146 1 146C0.447715 146 4.82823e-08 145.552 0 145C1.07711e-06 144.448 0.447716 144 1 144ZM1 141C1.55224 141 2 141.448 2 142C2 142.552 1.55224 143 1 143C0.447715 143 4.82823e-08 142.552 0 142C1.07711e-06 141.448 0.447716 141 1 141ZM1 138C1.55224 138 2 138.448 2 139C2 139.552 1.55224 140 1 140C0.447715 140 4.82823e-08 139.552 0 139C1.07711e-06 138.448 0.447716 138 1 138ZM1 135C1.55224 135 2 135.448 2 136C2 136.552 1.55224 137 1 137C0.447715 137 4.82823e-08 136.552 0 136C1.33483e-06 135.448 0.447716 135 1 135ZM1 132C1.55224 132 2 132.448 2 133C2 133.552 1.55224 134 1 134C0.447715 134 4.82823e-08 133.552 0 133C1.20597e-06 132.448 0.447716 132 1 132ZM12 128C12.5522 128 13 128.448 13 129C13 129.552 12.5522 130 12 130H1C0.447715 130 4.82823e-08 129.552 0 129C5.65987e-07 128.448 0.447716 128 1 128H12ZM1 124C1.55224 124 2 124.448 2 125C2 125.552 1.55224 126 1 126C0.447715 126 4.82823e-08 125.552 0 125C1.07711e-06 124.448 0.447716 124 1 124ZM1 121C1.55224 121 2 121.448 2 122C2 122.552 1.55224 123 1 123C0.447715 123 4.82823e-08 122.552 0 122C1.07711e-06 121.448 0.447716 121 1 121ZM1 118C1.55224 118 2 118.448 2 119C2 119.552 1.55224 120 1 120C0.447715 120 4.82823e-08 119.552 0 119C1.07711e-06 118.448 0.447716 118 1 118ZM1 115C1.55224 115 2 115.448 2 116C2 116.552 1.55224 117 1 117C0.447715 117 4.82823e-08 116.552 0 116C1.07711e-06 115.448 0.447716 115 1 115ZM1 112C1.55224 112 2 112.448 2 113C2 113.552 1.55224 114 1 114C0.447715 114 4.82823e-08 113.552 0 113C1.07711e-06 112.448 0.447716 112 1 112ZM1 109C1.55224 109 2 109.448 2 110C2 110.552 1.55224 111 1 111C0.447715 111 4.82823e-08 110.552 0 110C1.07711e-06 109.448 0.447716 109 1 109ZM1 106C1.55224 106 2 106.448 2 107C2 107.552 1.55224 108 1 108C0.447715 108 4.82823e-08 107.552 0 107C1.07711e-06 106.448 0.447716 106 1 106ZM1 103C1.55224 103 2 103.448 2 104C2 104.552 1.55224 105 1 105C0.447715 105 4.82823e-08 104.552 0 104C1.33484e-06 103.448 0.447716 103 1 103ZM1 100C1.55224 100 2 100.448 2 101C2 101.552 1.55224 102 1 102C0.447715 102 4.82823e-08 101.552 0 101C1.20597e-06 100.448 0.447716 100 1 100ZM12 96C12.5522 96.0001 13 96.4478 13 97C13 97.5522 12.5522 97.9999 12 98H1C0.447715 98 4.82823e-08 97.5523 0 97C5.65989e-07 96.4477 0.447716 96 1 96H12ZM1 92C1.55224 92.0001 2 92.4477 2 93C2 93.5523 1.55224 93.9999 1 94C0.447715 94 4.82823e-08 93.5523 0 93C1.07712e-06 92.4477 0.447716 92 1 92ZM1 89C1.55224 89.0001 2 89.4477 2 90C2 90.5523 1.55224 90.9999 1 91C0.447715 91 4.82823e-08 90.5523 0 90C1.07712e-06 89.4477 0.447716 89 1 89ZM1 86C1.55224 86.0001 2 86.4477 2 87C2 87.5523 1.55224 87.9999 1 88C0.447715 88 4.82823e-08 87.5523 0 87C1.07712e-06 86.4477 0.447716 86 1 86ZM1 83C1.55224 83.0001 2 83.4477 2 84C2 84.5523 1.55224 84.9999 1 85C0.447715 85 4.82823e-08 84.5523 0 84C1.07712e-06 83.4477 0.447716 83 1 83ZM1 80C1.55224 80.0001 2 80.4477 2 81C2 81.5523 1.55224 81.9999 1 82C0.447715 82 4.82823e-08 81.5523 0 81C1.07712e-06 80.4477 0.447716 80 1 80ZM1 77C1.55224 77.0001 2 77.4477 2 78C2 78.5523 1.55224 78.9999 1 79C0.447715 79 4.82823e-08 78.5523 0 78C1.07712e-06 77.4477 0.447716 77 1 77ZM1 74C1.55224 74.0001 2 74.4477 2 75C2 75.5523 1.55224 75.9999 1 76C0.447715 76 4.82823e-08 75.5523 0 75C1.07712e-06 74.4477 0.447716 74 1 74ZM1 71C1.55224 71.0001 2 71.4477 2 72C2 72.5523 1.55224 72.9999 1 73C0.447715 73 4.82823e-08 72.5523 0 72C1.33484e-06 71.4477 0.447716 71 1 71ZM1 68C1.55224 68.0001 2 68.4477 2 69C2 69.5523 1.55224 69.9999 1 70C0.447715 70 4.82823e-08 69.5523 0 69C1.20598e-06 68.4477 0.447716 68 1 68ZM12 64C12.5522 64.0001 13 64.4478 13 65C13 65.5522 12.5522 65.9999 12 66H1C0.447715 66 4.82823e-08 65.5523 0 65C5.65989e-07 64.4477 0.447716 64 1 64H12ZM1 60C1.55223 60.0001 1.99998 60.4478 2 61C2 61.5523 1.55224 61.9999 1 62C0.447715 62 4.82823e-08 61.5523 0 61C2.37563e-05 60.4477 0.44773 60 1 60ZM1 57C1.55223 57.0001 1.99998 57.4478 2 58C2 58.5523 1.55224 58.9999 1 59C0.447715 59 4.82823e-08 58.5523 0 58C2.37563e-05 57.4477 0.44773 57 1 57ZM1 54C1.55223 54.0001 1.99998 54.4478 2 55C2 55.5523 1.55224 55.9999 1 56C0.447715 56 4.82823e-08 55.5523 0 55C2.37563e-05 54.4477 0.44773 54 1 54ZM1 51C1.55223 51.0001 1.99998 51.4478 2 52C2 52.5523 1.55224 52.9999 1 53C0.447715 53 4.82823e-08 52.5523 0 52C2.37563e-05 51.4477 0.44773 51 1 51ZM1 48C1.55223 48.0001 1.99998 48.4478 2 49C2 49.5523 1.55224 49.9999 1 50C0.447715 50 4.82823e-08 49.5523 0 49C2.37563e-05 48.4477 0.44773 48 1 48ZM1 45C1.55223 45.0001 1.99998 45.4478 2 46C2 46.5523 1.55224 46.9999 1 47C0.447715 47 4.82823e-08 46.5523 0 46C2.37563e-05 45.4477 0.44773 45 1 45ZM1 42C1.55223 42.0001 1.99998 42.4478 2 43C2 43.5523 1.55224 43.9999 1 44C0.447715 44 4.82823e-08 43.5523 0 43C2.37563e-05 42.4477 0.44773 42 1 42ZM1 39C1.55223 39.0001 1.99998 39.4478 2 40C2 40.5523 1.55224 40.9999 1 41C0.447715 41 4.82823e-08 40.5523 0 40C2.4014e-05 39.4477 0.44773 39 1 39ZM1 36C1.55223 36.0001 1.99998 36.4478 2 37C2 37.5523 1.55224 37.9999 1 38C0.447715 38 4.82823e-08 37.5523 0 37C2.38851e-05 36.4477 0.44773 36 1 36ZM12 32C12.5522 32.0001 13 32.4478 13 33C13 33.5522 12.5522 33.9999 12 34H1C0.447715 34 4.82823e-08 33.5523 0 33C2.32457e-05 32.4477 0.44773 32 1 32H12ZM1 28C1.55219 28.0001 1.99992 28.4478 2 29C2 29.5523 1.55224 29.9999 1 30C0.447715 30 4.82823e-08 29.5523 0 29C8.25096e-05 28.4478 0.447766 28 1 28ZM1 25C1.55219 25.0001 1.99992 25.4478 2 26C2 26.5523 1.55224 26.9999 1 27C0.447715 27 4.82823e-08 26.5523 0 26C8.25096e-05 25.4478 0.447766 25 1 25ZM1 22C1.55219 22.0001 1.99992 22.4478 2 23C2 23.5523 1.55224 23.9999 1 24C0.447715 24 4.82823e-08 23.5523 0 23C8.25096e-05 22.4478 0.447766 22 1 22ZM1 19C1.55219 19.0001 1.99992 19.4478 2 20C2 20.5523 1.55224 20.9999 1 21C0.447715 21 4.82823e-08 20.5523 0 20C8.25096e-05 19.4478 0.447766 19 1 19ZM1 16C1.55219 16.0001 1.99992 16.4478 2 17C2 17.5523 1.55224 17.9999 1 18C0.447715 18 4.82823e-08 17.5523 0 17C8.25096e-05 16.4478 0.447766 16 1 16ZM1 13C1.55219 13.0001 1.99992 13.4478 2 14C2 14.5523 1.55224 14.9999 1 15C0.447715 15 4.82823e-08 14.5523 0 14C8.25096e-05 13.4478 0.447766 13 1 13ZM1 10C1.55219 10.0001 1.99992 10.4478 2 11C2 11.5523 1.55224 11.9999 1 12C0.447715 12 4.82823e-08 11.5523 0 11C8.25096e-05 10.4478 0.447766 10 1 10ZM1 7C1.55219 7.00005 1.99992 7.44782 2 8C2 8.55225 1.55224 8.99995 1 9C0.447715 9 4.82823e-08 8.55228 0 8C8.27673e-05 7.44779 0.447766 7 1 7ZM1 4C1.55219 4.00005 1.99992 4.44782 2 5C2 5.55225 1.55224 5.99995 1 6C0.447715 6 4.82823e-08 5.55228 0 5C8.26384e-05 4.44779 0.447766 4 1 4ZM12 0C12.5522 6.59643e-05 12.9999 0.447825 13 1C13 1.55224 12.5522 1.99993 12 2H1C0.447715 2 4.82823e-08 1.55228 0 1C8.14852e-05 0.447785 0.447766 4.82779e-08 1 0H12Z" fill="url(#paint0_linear_0_4)"/>
</g>
<defs>
<filter id="filter0_i_0_4" x="0" y="0" width="13" height="290" filterUnits="userSpaceOnUse" color-interpolation-filters="sRGB">
<feFlood flood-opacity="0" result="BackgroundImageFix"/>
<feBlend mode="normal" in="SourceGraphic" in2="BackgroundImageFix" result="shape"/>
<feColorMatrix in="SourceAlpha" type="matrix" values="0 0 0 0 0 0 0 0 0 0 0 0 0 0 0 0 0 0 127 0" result="hardAlpha"/>
<feOffset/>
<feGaussianBlur stdDeviation="2"/>
<feComposite in2="hardAlpha" operator="arithmetic" k2="-1" k3="1"/>
<feColorMatrix type="matrix" values="0 0 0 0 0 0 0 0 0 0 0 0 0 0 0 0 0 0 0.3 0"/>
<feBlend mode="normal" in2="shape" result="effect1_innerShadow_0_4"/>
</filter>
<linearGradient id="paint0_linear_0_4" x1="-0.000121633" y1="5.00015" x2="1.99988" y2="5.00015" gradientUnits="userSpaceOnUse">
<stop stop-color="#DBDDD0" style="stop-color:#DBDDD0;stop-color:color(display-p3 0.8588 0.8667 0.8157);stop-opacity:1;"/>
<stop offset="1" stop-color="#A2A192" style="stop-color:#A2A192;stop-color:color(display-p3 0.6334 0.6314 0.5737);stop-opacity:1;"/>
</linearGradient>
</defs>
</svg>
