<svg width="419" height="252" viewBox="0 0 419 252" fill="none" xmlns="http://www.w3.org/2000/svg">
<g clip-path="url(#clip0_61_618)">
<g filter="url(#filter0_diin_61_618)">
<path d="M408 4C411.866 4 415 7.13401 415 11V241C415 244.866 411.866 248 408 248H355V242C355 240.895 354.105 240 353 240H305C303.895 240 303 240.895 303 242V248H116V242C116 240.895 115.105 240 114 240H66C64.8954 240 64 240.895 64 242V248H11C7.13401 248 4 244.866 4 241V11C4 7.13401 7.13401 4 11 4H408ZM108 29C69.8924 29 39 59.8924 39 98C39 136.108 69.8924 167 108 167H311C349.108 167 380 136.108 380 98C380 59.8924 349.108 29 311 29H108Z" fill="#DBDDD0" style="fill:#DBDDD0;fill:color(display-p3 0.8588 0.8667 0.8157);fill-opacity:1;"/>
</g>
<g filter="url(#filter1_dd_61_618)">
<path d="M260.836 219.6H264.472L265.3 220.848L264.316 221.808L263.74 220.956H261.4L261.184 221.184V222.588L261.544 223.116H264.58L265.54 224.568V226.98L264.556 228H260.368L259.66 226.992L260.608 226.008L261.076 226.644H263.956L264.088 226.536V224.808L263.848 224.472H260.812L259.732 222.864V220.752L260.836 219.6ZM266.063 219.6H272.327V220.956H269.135L269.927 221.664V228H268.475V222L268.127 220.956H266.063V219.6ZM273.883 219.6H278.563V220.956H274.435L274.219 221.196V223.08H276.991V224.436H274.219V226.116L274.567 226.644H278.563V228H273.847L272.767 226.392V220.74L273.883 219.6ZM279.482 219.6H283.886L285.29 221.652V223.056L284.186 224.196L285.29 225.816V228H283.838V226.068L282.746 224.472H281.57L280.934 224.076V228H279.482V219.6ZM280.934 220.956V223.116H283.37L283.838 222.636V221.94L283.154 220.956H280.934ZM287.073 219.6H291.753V220.956H287.625L287.409 221.196V223.08H290.181V224.436H287.409V226.116L287.757 226.644H291.753V228H287.037L285.957 226.392V220.74L287.073 219.6ZM293.801 219.6H297.413L298.469 221.208V226.848L297.377 228H293.777L292.685 226.392V220.752L293.801 219.6ZM294.137 226.128L294.485 226.644H296.789L297.017 226.404V221.472L296.669 220.956H294.353L294.137 221.196V226.128ZM307.147 219.6H310.747L311.719 221.064L310.759 222.072L310.027 220.968H307.699L307.483 221.208V226.116L307.831 226.644H310.135L310.987 225.792L311.743 226.92L310.711 228H307.111L306.031 226.392V220.728L307.147 219.6ZM314.799 219.6H318.003V228H316.551V224.412H314.151V228H312.723V221.748L314.799 219.6ZM314.151 222.168V223.056H316.551V220.956H315.327L314.151 222.168ZM320.194 219.6H323.83L324.658 220.848L323.674 221.808L323.098 220.956H320.758L320.542 221.184V222.588L320.902 223.116H323.938L324.898 224.568V226.98L323.914 228H319.726L319.018 226.992L319.966 226.008L320.434 226.644H323.314L323.446 226.536V224.808L323.206 224.472H320.17L319.09 222.864V220.752L320.194 219.6ZM326.789 219.6H330.425L331.253 220.848L330.269 221.808L329.693 220.956H327.353L327.137 221.184V222.588L327.497 223.116H330.533L331.493 224.568V226.98L330.509 228H326.321L325.613 226.992L326.561 226.008L327.029 226.644H329.909L330.041 226.536V224.808L329.801 224.472H326.765L325.685 222.864V220.752L326.789 219.6ZM333.24 219.6H337.92V220.956H333.792L333.576 221.196V223.08H336.348V224.436H333.576V226.116L333.924 226.644H337.92V228H333.204L332.124 226.392V220.74L333.24 219.6ZM338.612 219.6H344.876V220.956H341.684L342.476 221.664V228H341.024V222L340.676 220.956H338.612V219.6ZM345.207 219.6H351.471V220.956H348.279L349.071 221.664V228H347.619V222L347.271 220.956H345.207V219.6ZM353.026 219.6H357.706V220.956H353.578L353.362 221.196V223.08H356.134V224.436H353.362V226.116L353.71 226.644H357.706V228H352.99L351.91 226.392V220.74L353.026 219.6ZM365.221 219.6H369.961L371.029 221.208V223.332L369.937 224.448H366.673V228H365.221V219.6ZM366.673 220.956V223.512L367.345 223.116H369.349L369.577 222.888V221.484L369.229 220.956H366.673ZM371.816 219.6H373.268V226.104L373.64 226.644H376.172V225.768H377.624V228H372.908L371.816 226.344V219.6ZM380.752 219.6H383.956V228H382.504V224.412H380.104V228H378.676V221.748L380.752 219.6ZM380.104 222.168V223.056H382.504V220.956H381.28L380.104 222.168ZM389.351 219.6H390.803V221.916L388.631 224.16V228H387.179V224.244L385.007 221.016V219.6H386.459V220.776L387.911 222.936H387.935L389.351 221.46V219.6ZM392.598 219.6H397.278V220.956H393.15L392.934 221.196V223.08H395.706V224.436H392.934V226.116L393.282 226.644H397.278V228H392.562L391.482 226.392V220.74L392.598 219.6ZM398.198 219.6H402.602L404.006 221.652V223.056L402.902 224.196L404.006 225.816V228H402.554V226.068L401.462 224.472H400.286L399.65 224.076V228H398.198V219.6ZM399.65 220.956V223.116H402.086L402.554 222.636V221.94L401.87 220.956H399.65Z" fill="#9EA190" style="fill:#9EA190;fill:color(display-p3 0.6204 0.6309 0.5628);fill-opacity:1;"/>
</g>
<mask id="mask0_61_618" style="mask-type:luminance" maskUnits="userSpaceOnUse" x="260" y="191" width="34" height="24">
<path d="M276.5 198H294V208H276.5V214.589L260 202.897L276.5 191.206V198Z" fill="white" style="fill:white;fill-opacity:1;"/>
</mask>
<g mask="url(#mask0_61_618)">
<path d="M276.5 198H274.5V200H276.5V198ZM294 198H296V196H294V198ZM294 208V210H296V208H294ZM276.5 208V206H274.5V208H276.5ZM276.5 214.589L275.344 216.221L278.5 218.457V214.589H276.5ZM260 202.897L258.844 201.266L256.541 202.897L258.844 204.529L260 202.897ZM276.5 191.206H278.5V187.338L275.344 189.574L276.5 191.206ZM276.5 198V200H294V198V196H276.5V198ZM294 198H292V208H294H296V198H294ZM294 208V206H276.5V208V210H294V208ZM276.5 208H274.5V214.589H276.5H278.5V208H276.5ZM276.5 214.589L277.656 212.957L261.156 201.266L260 202.897L258.844 204.529L275.344 216.221L276.5 214.589ZM260 202.897L261.156 204.529L277.656 192.838L276.5 191.206L275.344 189.574L258.844 201.266L260 202.897ZM276.5 191.206H274.5V198H276.5H278.5V191.206H276.5Z" fill="black" fill-opacity="0.16" style="fill:black;fill-opacity:0.16;"/>
</g>
<path d="M312 25.5H107C66.9594 25.5 34.5 57.9594 34.5 98C34.5 138.041 66.9594 170.5 107 170.5H312C352.041 170.5 384.5 138.041 384.5 98C384.5 57.9594 352.041 25.5 312 25.5Z" stroke="black" stroke-opacity="0.16" style="stroke:black;stroke-opacity:0.16;"/>
<g filter="url(#filter2_i_61_618)">
<path d="M311 29H108C69.8924 29 39 59.8924 39 98C39 136.108 69.8924 167 108 167H311C349.108 167 380 136.108 380 98C380 59.8924 349.108 29 311 29Z" fill="#9B1B1B" fill-opacity="0.35" style="fill:#9B1B1B;fill:color(display-p3 0.6074 0.1044 0.1044);fill-opacity:0.35;"/>
</g>
<path d="M311 29H108C69.8924 29 39 59.8924 39 98C39 136.108 69.8924 167 108 167H311C349.108 167 380 136.108 380 98C380 59.8924 349.108 29 311 29Z" fill="url(#paint0_linear_61_618)"/>
<path d="M165.5 247V171" stroke="white" style="stroke:white;stroke-opacity:1;"/>
<path d="M166.5 247V171" stroke="black" stroke-opacity="0.16" style="stroke:black;stroke-opacity:0.16;"/>
<path d="M251.5 247V171" stroke="white" style="stroke:white;stroke-opacity:1;"/>
<path d="M252.5 247V171" stroke="black" stroke-opacity="0.16" style="stroke:black;stroke-opacity:0.16;"/>
</g>
<defs>
<filter id="filter0_diin_61_618" x="0" y="0" width="419" height="252" filterUnits="userSpaceOnUse" color-interpolation-filters="sRGB">
<feFlood flood-opacity="0" result="BackgroundImageFix"/>
<feColorMatrix in="SourceAlpha" type="matrix" values="0 0 0 0 0 0 0 0 0 0 0 0 0 0 0 0 0 0 127 0" result="hardAlpha"/>
<feOffset/>
<feGaussianBlur stdDeviation="2"/>
<feComposite in2="hardAlpha" operator="out"/>
<feColorMatrix type="matrix" values="0 0 0 0 0 0 0 0 0 0 0 0 0 0 0 0 0 0 0.25 0"/>
<feBlend mode="normal" in2="BackgroundImageFix" result="effect1_dropShadow_61_618"/>
<feBlend mode="normal" in="SourceGraphic" in2="BackgroundImageFix" result="shape"/>
<feColorMatrix in="SourceAlpha" type="matrix" values="0 0 0 0 0 0 0 0 0 0 0 0 0 0 0 0 0 0 127 0" result="hardAlpha"/>
<feOffset dx="1" dy="1"/>
<feGaussianBlur stdDeviation="0.25"/>
<feComposite in2="hardAlpha" operator="arithmetic" k2="-1" k3="1"/>
<feColorMatrix type="matrix" values="0 0 0 0 1 0 0 0 0 1 0 0 0 0 1 0 0 0 0.7 0"/>
<feBlend mode="normal" in2="shape" result="effect2_innerShadow_61_618"/>
<feColorMatrix in="SourceAlpha" type="matrix" values="0 0 0 0 0 0 0 0 0 0 0 0 0 0 0 0 0 0 127 0" result="hardAlpha"/>
<feOffset dx="-1" dy="-1"/>
<feGaussianBlur stdDeviation="0.25"/>
<feComposite in2="hardAlpha" operator="arithmetic" k2="-1" k3="1"/>
<feColorMatrix type="matrix" values="0 0 0 0 0 0 0 0 0 0 0 0 0 0 0 0 0 0 0.25 0"/>
<feBlend mode="normal" in2="effect2_innerShadow_61_618" result="effect3_innerShadow_61_618"/>
<feTurbulence type="fractalNoise" baseFrequency="2 2" stitchTiles="stitch" numOctaves="3" result="noise" seed="8284" />
<feColorMatrix in="noise" type="luminanceToAlpha" result="alphaNoise" />
<feComponentTransfer in="alphaNoise" result="coloredNoise1">
<feFuncA type="discrete" tableValues="0 0 0 0 0 0 0 0 0 0 0 0 0 0 0 0 0 0 0 0 1 1 1 1 1 1 1 1 1 1 1 0 0 0 0 0 0 0 0 0 0 0 0 0 0 0 0 0 0 0 0 0 0 0 0 0 0 0 0 0 0 0 0 0 0 0 0 0 0 0 0 0 0 0 0 0 0 0 0 0 0 0 0 0 0 0 0 0 0 0 0 0 0 0 0 0 0 0 0 0 "/>
</feComponentTransfer>
<feComposite operator="in" in2="effect3_innerShadow_61_618" in="coloredNoise1" result="noise1Clipped" />
<feFlood flood-color="rgba(0, 0, 0, 0.25)" result="color1Flood" />
<feComposite operator="in" in2="noise1Clipped" in="color1Flood" result="color1" />
<feMerge result="effect4_noise_61_618">
<feMergeNode in="effect3_innerShadow_61_618" />
<feMergeNode in="color1" />
</feMerge>
<feBlend mode="normal" in="effect4_noise_61_618" in2="effect1_dropShadow_61_618" result="effect4_noise_61_618"/>
</filter>
<filter id="filter1_dd_61_618" x="259.66" y="219.6" width="145.346" height="9.40002" filterUnits="userSpaceOnUse" color-interpolation-filters="sRGB">
<feFlood flood-opacity="0" result="BackgroundImageFix"/>
<feColorMatrix in="SourceAlpha" type="matrix" values="0 0 0 0 0 0 0 0 0 0 0 0 0 0 0 0 0 0 127 0" result="hardAlpha"/>
<feOffset dx="0.5" dy="0.5"/>
<feGaussianBlur stdDeviation="0.25"/>
<feComposite in2="hardAlpha" operator="out"/>
<feColorMatrix type="matrix" values="0 0 0 0 0 0 0 0 0 0 0 0 0 0 0 0 0 0 0.25 0"/>
<feBlend mode="normal" in2="BackgroundImageFix" result="effect1_dropShadow_61_618"/>
<feColorMatrix in="SourceAlpha" type="matrix" values="0 0 0 0 0 0 0 0 0 0 0 0 0 0 0 0 0 0 127 0" result="hardAlpha"/>
<feOffset dx="0.5"/>
<feComposite in2="hardAlpha" operator="out"/>
<feColorMatrix type="matrix" values="0 0 0 0 1 0 0 0 0 1 0 0 0 0 1 0 0 0 0.25 0"/>
<feBlend mode="normal" in2="effect1_dropShadow_61_618" result="effect2_dropShadow_61_618"/>
<feBlend mode="normal" in="SourceGraphic" in2="effect2_dropShadow_61_618" result="shape"/>
</filter>
<filter id="filter2_i_61_618" x="39" y="29" width="341" height="144" filterUnits="userSpaceOnUse" color-interpolation-filters="sRGB">
<feFlood flood-opacity="0" result="BackgroundImageFix"/>
<feBlend mode="normal" in="SourceGraphic" in2="BackgroundImageFix" result="shape"/>
<feColorMatrix in="SourceAlpha" type="matrix" values="0 0 0 0 0 0 0 0 0 0 0 0 0 0 0 0 0 0 127 0" result="hardAlpha"/>
<feOffset dy="6"/>
<feGaussianBlur stdDeviation="4.5"/>
<feComposite in2="hardAlpha" operator="arithmetic" k2="-1" k3="1"/>
<feColorMatrix type="matrix" values="0 0 0 0 0 0 0 0 0 0 0 0 0 0 0 0 0 0 0.25 0"/>
<feBlend mode="normal" in2="shape" result="effect1_innerShadow_61_618"/>
</filter>
<linearGradient id="paint0_linear_61_618" x1="59.5" y1="174.5" x2="208.261" y2="273.439" gradientUnits="userSpaceOnUse">
<stop offset="0.375" stop-color="white" stop-opacity="0.1" style="stop-color:white;stop-opacity:0.1;"/>
<stop offset="0.581731" stop-color="white" stop-opacity="0" style="stop-color:none;stop-opacity:0;"/>
<stop offset="1" stop-color="white" stop-opacity="0" style="stop-color:none;stop-opacity:0;"/>
</linearGradient>
<clipPath id="clip0_61_618">
<rect width="419" height="252" fill="white" style="fill:white;fill-opacity:1;"/>
</clipPath>
</defs>
</svg>
