<svg width="350" height="100" viewBox="0 0 350 100" fill="none" xmlns="http://www.w3.org/2000/svg">
<path d="M0 0L349.612 0V100H0V0Z" fill="#E20025"/>
<g filter="url(#filter0_d_58_2)">
<path d="M103.773 73.1957C99.9601 73.1957 96.4918 72.208 93.3681 70.2327C90.2443 68.2574 87.7408 65.639 85.8573 62.3774C84.0198 59.0699 83.1011 55.4179 83.1011 51.4213C83.1011 47.4248 84.0198 43.7727 85.8573 40.4653C87.7408 37.1578 90.2443 34.5393 93.3681 32.61C96.4918 30.6346 99.9601 29.647 103.773 29.647C106.437 29.647 108.872 30.1293 111.077 31.094C113.282 32.0128 115.165 33.299 116.727 34.9528V30.7495H127.063V72.0932H116.727V67.8899C115.165 69.5436 113.282 70.8528 111.077 71.8175C108.872 72.7363 106.437 73.1957 103.773 73.1957ZM105.22 62.653C107.241 62.653 109.079 62.1477 110.732 61.1371C112.386 60.1265 113.695 58.7713 114.66 57.0716C115.671 55.3719 116.176 53.4885 116.176 51.4213C116.176 49.3541 115.671 47.4707 114.66 45.771C113.695 44.0713 112.386 42.7162 110.732 41.7056C109.079 40.6949 107.241 40.1896 105.22 40.1896C103.199 40.1896 101.361 40.6949 99.7074 41.7056C98.0537 42.7162 96.7215 44.0713 95.7109 45.771C94.7462 47.4707 94.2639 49.3541 94.2639 51.4213C94.2639 53.4885 94.7462 55.3719 95.7109 57.0716C96.7215 58.7713 98.0537 60.1265 99.7074 61.1371C101.361 62.1477 103.199 62.653 105.22 62.653Z" fill="#FFFDBC"/>
<path d="M144.751 73.4713C141.948 73.4713 139.1 73.0119 136.206 72.0932C133.358 71.1744 131.13 69.9341 129.522 68.3722L132.485 57.0716C133.817 58.9091 135.655 60.5169 137.998 61.8951C140.386 63.2732 142.844 63.9622 145.371 63.9622C147.07 63.9622 148.288 63.6407 149.023 62.9975C149.804 62.3544 150.194 61.5735 150.194 60.6547C150.194 59.5982 149.804 58.8402 149.023 58.3808C148.242 57.8755 147.438 57.4621 146.611 57.1405L140.823 54.9355C139.537 54.4302 138.067 53.7412 136.413 52.8683C134.759 51.9955 133.312 50.7552 132.072 49.1474C130.877 47.5396 130.28 45.4265 130.28 42.8081C130.28 40.4193 130.877 38.2143 132.072 36.1931C133.266 34.1718 134.989 32.541 137.24 31.3007C139.537 30.0145 142.293 29.3714 145.508 29.3714C148.494 29.3714 151.274 29.8767 153.846 30.8873C156.465 31.8979 158.371 33.0234 159.565 34.2637L156.809 45.1509C155.247 43.1296 153.387 41.5907 151.228 40.5342C149.115 39.4317 147.093 38.8804 145.164 38.8804C143.694 38.8804 142.614 39.179 141.925 39.7762C141.236 40.3734 140.892 41.0624 140.892 41.8434C140.892 42.4406 141.121 43.0377 141.581 43.6349C142.086 44.1862 142.913 44.6915 144.061 45.1509L149.436 47.1491C150.998 47.7004 152.652 48.4354 154.397 49.3541C156.189 50.2729 157.705 51.5591 158.945 53.2129C160.185 54.8207 160.806 57.0487 160.806 59.8968C160.806 63.8933 159.313 67.1549 156.327 69.6814C153.387 72.208 149.528 73.4713 144.751 73.4713Z" fill="#FFFDBC"/>
<path d="M176.32 73.4713C173.518 73.4713 170.67 73.0119 167.776 72.0932C164.928 71.1744 162.7 69.9341 161.092 68.3722L164.055 57.0716C165.387 58.9091 167.225 60.5169 169.567 61.8951C171.956 63.2732 174.414 63.9622 176.94 63.9622C178.64 63.9622 179.857 63.6407 180.592 62.9975C181.373 62.3544 181.764 61.5735 181.764 60.6547C181.764 59.5982 181.373 58.8402 180.592 58.3808C179.812 57.8755 179.008 57.4621 178.181 57.1405L172.393 54.9355C171.106 54.4302 169.636 53.7412 167.983 52.8683C166.329 51.9955 164.882 50.7552 163.642 49.1474C162.447 47.5396 161.85 45.4265 161.85 42.8081C161.85 40.4193 162.447 38.2143 163.642 36.1931C164.836 34.1718 166.559 32.541 168.81 31.3007C171.106 30.0145 173.863 29.3714 177.078 29.3714C180.064 29.3714 182.843 29.8767 185.416 30.8873C188.034 31.8979 189.941 33.0234 191.135 34.2637L188.379 45.1509C186.817 43.1296 184.957 41.5907 182.797 40.5342C180.684 39.4317 178.663 38.8804 176.734 38.8804C175.264 38.8804 174.184 39.179 173.495 39.7762C172.806 40.3734 172.462 41.0624 172.462 41.8434C172.462 42.4406 172.691 43.0377 173.151 43.6349C173.656 44.1862 174.483 44.6915 175.631 45.1509L181.006 47.1491C182.568 47.7004 184.222 48.4354 185.967 49.3541C187.759 50.2729 189.275 51.5591 190.515 53.2129C191.755 54.8207 192.375 57.0487 192.375 59.8968C192.375 63.8933 190.882 67.1549 187.897 69.6814C184.957 72.208 181.098 73.4713 176.32 73.4713Z" fill="#FFFDBC"/>
<path d="M215.745 73.4713C211.106 73.4713 207.017 72.5066 203.48 70.5772C199.943 68.6478 197.187 66.0064 195.211 62.653C193.236 59.2536 192.248 55.3719 192.248 51.0079C192.248 46.8276 193.213 43.1296 195.142 39.914C197.072 36.6524 199.667 34.0799 202.929 32.1965C206.236 30.3131 209.888 29.3714 213.885 29.3714C217.973 29.3714 221.625 30.3131 224.841 32.1965C228.057 34.034 230.583 36.5606 232.421 39.7762C234.304 42.9918 235.246 46.6438 235.246 50.7323V54.2465H210.026C208.878 54.2465 207.775 54.3843 206.719 54.2465C205.662 54.1087 204.606 54.4302 203.549 54.2465C204.1 57.0027 205.455 59.2537 207.614 60.9993C209.819 62.699 212.622 63.5488 216.021 63.5488C218.639 63.5488 220.982 63.0205 223.049 61.964C225.163 60.9074 226.885 59.5982 228.217 58.0363L230.836 68.7857C228.769 70.3475 226.426 71.5189 223.807 72.2999C221.235 73.0808 218.548 73.4713 215.745 73.4713ZM203.273 47.0113C203.273 47.0113 207.821 47.0113 210.026 47.0113H217.33H220.982H224.221C223.532 44.5307 222.268 42.4406 220.431 41.0165C218.639 39.5924 216.411 38.8804 213.747 38.8804C211.221 38.8804 209.016 39.6154 207.132 41.0854C205.295 42.5095 204.008 44.4848 203.273 47.0113Z" fill="#FFFDBC"/>
<path d="M241.755 72.0932V40.2585H234.038V30.7495H241.962V16.9683H253.538V30.7495H261.738V40.2585H253.745V72.0932H241.755Z" fill="#FFFDBC"/>
<path d="M267.802 72.0932V40.2585H260.084V30.7495H268.008V16.9683H279.585V30.7495H287.785V40.2585H279.791V72.0932H267.802Z" fill="#FFFDBC"/>
<path d="M308.42 73.4713C303.78 73.4713 299.692 72.5066 296.154 70.5772C292.617 68.6478 289.861 66.0064 287.886 62.653C285.91 59.2536 284.923 55.3719 284.923 51.0079C284.923 46.8276 285.887 43.1296 287.817 39.914C289.746 36.6524 292.342 34.0799 295.603 32.1965C298.911 30.3131 302.563 29.3714 306.559 29.3714C310.648 29.3714 314.3 30.3131 317.515 32.1965C320.731 34.034 323.258 36.5606 325.095 39.7762C326.978 42.9918 327.92 46.6438 327.92 50.7323V54.2465H302.701C301.552 54.2465 300.45 54.3843 299.393 54.2465C298.337 54.1087 297.28 54.4302 296.223 54.2465C296.775 57.0027 298.13 59.2537 300.289 60.9993C302.494 62.699 305.296 63.5488 308.695 63.5488C311.314 63.5488 313.657 63.0205 315.724 61.964C317.837 60.9074 319.56 59.5982 320.892 58.0363L323.51 68.7857C321.443 70.3475 319.1 71.5189 316.482 72.2999C313.909 73.0808 311.222 73.4713 308.42 73.4713ZM295.948 47.0113H302.701H310.005C311.291 47.0113 313.657 47.0113 313.657 47.0113H316.895C316.206 44.5307 314.943 42.4406 313.105 41.0165C311.314 39.5924 309.086 38.8804 306.421 38.8804C303.895 38.8804 301.69 39.6154 299.807 41.0854C297.969 42.5095 296.683 44.4848 295.948 47.0113Z" fill="#FFFDBC"/>
</g>
<path d="M26.0965 70.7716L43.6526 60.6357C58.3039 52.1767 57.0234 49.4957 57.0234 49.4957C57.0234 49.4957 57.0234 46.5507 43.6526 37.9915L26.0965 28.2197L19.871 39.0027L38.0454 49.4957L19.871 59.9887L26.0965 70.7716Z" fill="url(#paint0_linear_58_2)"/>
<path d="M45.734 55.814H57.3619V80.6202H44.1836V68.9741C44.1836 66.922 44.3403 64.8729 44.6523 62.8447L45.734 55.814Z" fill="url(#paint1_linear_58_2)"/>
<path d="M45.7369 41.8604H57.3648V17.0541H44.1865V28.7002C44.1865 30.7523 44.3432 32.8014 44.6553 34.8296L45.7369 41.8604Z" fill="url(#paint2_linear_58_2)"/>
<g filter="url(#filter1_d_58_2)">
<path d="M57.6111 60.3529C52.3816 57.3337 45.3185 59.059 44.2402 67.0384L45.3019 54.8319C45.6271 51.0929 45.6284 47.3329 45.3059 43.5937L44.2402 31.239C46.8281 41.5906 54.5919 39.434 57.6111 37.7087L75.1671 27.937L81.3926 38.72L63.2182 49.213L81.3926 59.706L75.1671 70.4889L57.6111 60.3529Z" fill="url(#paint3_radial_58_2)"/>
</g>
<defs>
<filter id="filter0_d_58_2" x="76.8995" y="10.7667" width="257.222" height="68.906" filterUnits="userSpaceOnUse" color-interpolation-filters="sRGB">
<feFlood flood-opacity="0" result="BackgroundImageFix"/>
<feColorMatrix in="SourceAlpha" type="matrix" values="0 0 0 0 0 0 0 0 0 0 0 0 0 0 0 0 0 0 127 0" result="hardAlpha"/>
<feOffset/>
<feGaussianBlur stdDeviation="3.10078"/>
<feComposite in2="hardAlpha" operator="out"/>
<feColorMatrix type="matrix" values="0 0 0 0 0 0 0 0 0 0 0 0 0 0 0 0 0 0 0.25 0"/>
<feBlend mode="normal" in2="BackgroundImageFix" result="effect1_dropShadow_58_2"/>
<feBlend mode="normal" in="SourceGraphic" in2="effect1_dropShadow_58_2" result="shape"/>
</filter>
<filter id="filter1_d_58_2" x="41.1395" y="21.7355" width="49.5554" height="54.9549" filterUnits="userSpaceOnUse" color-interpolation-filters="sRGB">
<feFlood flood-opacity="0" result="BackgroundImageFix"/>
<feColorMatrix in="SourceAlpha" type="matrix" values="0 0 0 0 0 0 0 0 0 0 0 0 0 0 0 0 0 0 127 0" result="hardAlpha"/>
<feOffset dx="3.10078"/>
<feGaussianBlur stdDeviation="3.10078"/>
<feComposite in2="hardAlpha" operator="out"/>
<feColorMatrix type="matrix" values="0 0 0 0 0 0 0 0 0 0 0 0 0 0 0 0 0 0 0.25 0"/>
<feBlend mode="normal" in2="BackgroundImageFix" result="effect1_dropShadow_58_2"/>
<feBlend mode="normal" in="SourceGraphic" in2="effect1_dropShadow_58_2" result="shape"/>
</filter>
<linearGradient id="paint0_linear_58_2" x1="19.871" y1="49.4957" x2="57.0518" y2="49.4957" gradientUnits="userSpaceOnUse">
<stop stop-color="#620000"/>
<stop offset="1" stop-color="#3E0118"/>
</linearGradient>
<linearGradient id="paint1_linear_58_2" x1="50.6682" y1="39.6506" x2="50.807" y2="80.6201" gradientUnits="userSpaceOnUse">
<stop stop-color="#E20025"/>
<stop offset="1" stop-color="#FFFDBC"/>
</linearGradient>
<linearGradient id="paint2_linear_58_2" x1="50.6711" y1="58.0237" x2="50.8099" y2="17.0543" gradientUnits="userSpaceOnUse">
<stop stop-color="#E20025"/>
<stop offset="1" stop-color="#FFFDBC"/>
</linearGradient>
<radialGradient id="paint3_radial_58_2" cx="0" cy="0" r="1" gradientUnits="userSpaceOnUse" gradientTransform="translate(76.3375 49.5048) rotate(-179.479) scale(32.0986 75.2963)">
<stop offset="0.288217" stop-color="#FFFDBC"/>
<stop offset="1" stop-color="#E20025"/>
</radialGradient>
</defs>
</svg>
