<svg width="100" height="100" viewBox="0 0 100 100" fill="none" xmlns="http://www.w3.org/2000/svg">
<path d="M0 0L100 0V100H0V0Z" fill="#E20025"/>
<path d="M25.2255 71.7174L42.7815 61.5815C57.4328 53.1225 56.1523 50.4415 56.1523 50.4415C56.1523 50.4415 56.1523 47.4965 42.7815 38.9373L25.2255 29.1655L18.9999 39.9485L37.1743 50.4415L18.9999 60.9345L25.2255 71.7174Z" fill="url(#paint0_linear_78_2)"/>
<path d="M44.8629 56.7598H56.4908V81.566H43.3125V69.9199C43.3125 67.8678 43.4692 65.8187 43.7812 63.7905L44.8629 56.7598Z" fill="url(#paint1_linear_78_2)"/>
<path d="M44.8658 42.8062H56.4937V18H43.3154V29.646C43.3154 31.6981 43.4721 33.7472 43.7842 35.7754L44.8658 42.8062Z" fill="url(#paint2_linear_78_2)"/>
<g filter="url(#filter0_d_78_2)">
<path d="M56.74 61.2987C51.5105 58.2795 44.4474 60.0048 43.3691 67.9842L44.4308 55.7777C44.756 52.0387 44.7574 48.2787 44.4348 44.5395L43.3691 32.1848C45.957 42.5364 53.7208 40.3798 56.74 38.6545L74.296 28.8828L80.5215 39.6658L62.3471 50.1588L80.5215 60.6518L74.296 71.4347L56.74 61.2987Z" fill="url(#paint3_radial_78_2)"/>
</g>
<defs>
<filter id="filter0_d_78_2" x="40.2684" y="22.6813" width="49.5554" height="54.9549" filterUnits="userSpaceOnUse" color-interpolation-filters="sRGB">
<feFlood flood-opacity="0" result="BackgroundImageFix"/>
<feColorMatrix in="SourceAlpha" type="matrix" values="0 0 0 0 0 0 0 0 0 0 0 0 0 0 0 0 0 0 127 0" result="hardAlpha"/>
<feOffset dx="3.10078"/>
<feGaussianBlur stdDeviation="3.10078"/>
<feComposite in2="hardAlpha" operator="out"/>
<feColorMatrix type="matrix" values="0 0 0 0 0 0 0 0 0 0 0 0 0 0 0 0 0 0 0.25 0"/>
<feBlend mode="normal" in2="BackgroundImageFix" result="effect1_dropShadow_78_2"/>
<feBlend mode="normal" in="SourceGraphic" in2="effect1_dropShadow_78_2" result="shape"/>
</filter>
<linearGradient id="paint0_linear_78_2" x1="18.9999" y1="50.4415" x2="56.1807" y2="50.4415" gradientUnits="userSpaceOnUse">
<stop stop-color="#620000"/>
<stop offset="1" stop-color="#3E0118"/>
</linearGradient>
<linearGradient id="paint1_linear_78_2" x1="49.7971" y1="40.5964" x2="49.9359" y2="81.5659" gradientUnits="userSpaceOnUse">
<stop stop-color="#E20025"/>
<stop offset="1" stop-color="#FFFDBC"/>
</linearGradient>
<linearGradient id="paint2_linear_78_2" x1="49.8" y1="58.9695" x2="49.9388" y2="18.0001" gradientUnits="userSpaceOnUse">
<stop stop-color="#E20025"/>
<stop offset="1" stop-color="#FFFDBC"/>
</linearGradient>
<radialGradient id="paint3_radial_78_2" cx="0" cy="0" r="1" gradientUnits="userSpaceOnUse" gradientTransform="translate(75.4664 50.4506) rotate(-179.479) scale(32.0986 75.2963)">
<stop offset="0.288217" stop-color="#FFFDBC"/>
<stop offset="1" stop-color="#E20025"/>
</radialGradient>
</defs>
</svg>
