<svg preserveAspectRatio="none" width="100%" height="100%" overflow="visible" style="display: block;" viewBox="0 0 349.612 100" fill="none" xmlns="http://www.w3.org/2000/svg">
<g id="Group 12">
<path id="Rectangle 30" d="M0 0L349.612 0V100H0V0Z" fill="var(--fill-0, #E20025)"/>
<g id="assette" filter="url(#filter0_d_0_6)">
<path d="M103.773 73.1955C99.9599 73.1955 96.4916 72.2079 93.3679 70.2326C90.2441 68.2573 87.7406 65.6388 85.8571 62.3773C84.0196 59.0698 83.1009 55.4178 83.1009 51.4212C83.1009 47.4247 84.0196 43.7726 85.8571 40.4651C87.7406 37.1576 90.2441 34.5392 93.3679 32.6098C96.4916 30.6345 99.9599 29.6469 103.773 29.6469C106.437 29.6469 108.872 30.1292 111.077 31.0939C113.282 32.0127 115.165 33.2989 116.727 34.9526V30.7494H127.063V72.093H116.727V67.8898C115.165 69.5435 113.282 70.8527 111.077 71.8174C108.872 72.7362 106.437 73.1955 103.773 73.1955ZM105.22 62.6529C107.241 62.6529 109.078 62.1476 110.732 61.137C112.386 60.1264 113.695 58.7712 114.66 57.0715C115.671 55.3718 116.176 53.4884 116.176 51.4212C116.176 49.354 115.671 47.4706 114.66 45.7709C113.695 44.0712 112.386 42.7161 110.732 41.7054C109.078 40.6948 107.241 40.1895 105.22 40.1895C103.198 40.1895 101.361 40.6948 99.7072 41.7054C98.0535 42.7161 96.7213 44.0712 95.7107 45.7709C94.746 47.4706 94.2637 49.354 94.2637 51.4212C94.2637 53.4884 94.746 55.3718 95.7107 57.0715C96.7213 58.7712 98.0535 60.1264 99.7072 61.137C101.361 62.1476 103.198 62.6529 105.22 62.6529Z" fill="var(--fill-0, #FFFDBC)"/>
<path d="M144.75 73.4712C141.948 73.4712 139.1 73.0118 136.206 72.093C133.358 71.1743 131.13 69.934 129.522 68.3721L132.485 57.0715C133.817 58.909 135.655 60.5168 137.998 61.8949C140.386 63.2731 142.844 63.9621 145.37 63.9621C147.07 63.9621 148.287 63.6406 149.022 62.9974C149.803 62.3543 150.194 61.5734 150.194 60.6546C150.194 59.5981 149.803 58.8401 149.022 58.3807C148.242 57.8754 147.438 57.462 146.611 57.1404L140.823 54.9354C139.536 54.4301 138.066 53.741 136.413 52.8682C134.759 51.9954 133.312 50.7551 132.072 49.1473C130.877 47.5395 130.28 45.4264 130.28 42.8079C130.28 40.4192 130.877 38.2142 132.072 36.193C133.266 34.1717 134.989 32.5409 137.24 31.3006C139.536 30.0144 142.293 29.3713 145.508 29.3713C148.494 29.3713 151.273 29.8766 153.846 30.8872C156.464 31.8978 158.371 33.0233 159.565 34.2636L156.809 45.1508C155.247 43.1295 153.387 41.5906 151.227 40.534C149.114 39.4315 147.093 38.8803 145.164 38.8803C143.694 38.8803 142.614 39.1789 141.925 39.7761C141.236 40.3733 140.892 41.0623 140.892 41.8433C140.892 42.4404 141.121 43.0376 141.581 43.6348C142.086 44.1861 142.913 44.6914 144.061 45.1508L149.436 47.149C150.998 47.7003 152.652 48.4353 154.397 49.354C156.189 50.2728 157.705 51.559 158.945 53.2128C160.185 54.8206 160.805 57.0485 160.805 59.8967C160.805 63.8932 159.312 67.1548 156.327 69.6813C153.387 72.2079 149.528 73.4712 144.75 73.4712Z" fill="var(--fill-0, #FFFDBC)"/>
<path d="M176.32 73.4712C173.518 73.4712 170.67 73.0118 167.776 72.093C164.928 71.1743 162.7 69.934 161.092 68.3721L164.055 57.0715C165.387 58.909 167.224 60.5168 169.567 61.8949C171.956 63.2731 174.414 63.9621 176.94 63.9621C178.64 63.9621 179.857 63.6406 180.592 62.9974C181.373 62.3543 181.764 61.5734 181.764 60.6546C181.764 59.5981 181.373 58.8401 180.592 58.3807C179.811 57.8754 179.007 57.462 178.181 57.1404L172.392 54.9354C171.106 54.4301 169.636 53.741 167.982 52.8682C166.329 51.9954 164.882 50.7551 163.641 49.1473C162.447 47.5395 161.85 45.4264 161.85 42.8079C161.85 40.4192 162.447 38.2142 163.641 36.193C164.836 34.1717 166.558 32.5409 168.809 31.3006C171.106 30.0144 173.862 29.3713 177.078 29.3713C180.064 29.3713 182.843 29.8766 185.416 30.8872C188.034 31.8978 189.941 33.0233 191.135 34.2636L188.379 45.1508C186.817 43.1295 184.956 41.5906 182.797 40.534C180.684 39.4315 178.663 38.8803 176.734 38.8803C175.264 38.8803 174.184 39.1789 173.495 39.7761C172.806 40.3733 172.461 41.0623 172.461 41.8433C172.461 42.4404 172.691 43.0376 173.15 43.6348C173.656 44.1861 174.483 44.6914 175.631 45.1508L181.006 47.149C182.568 47.7003 184.221 48.4353 185.967 49.354C187.758 50.2728 189.274 51.559 190.515 53.2128C191.755 54.8206 192.375 57.0485 192.375 59.8967C192.375 63.8932 190.882 67.1548 187.896 69.6813C184.956 72.2079 181.098 73.4712 176.32 73.4712Z" fill="var(--fill-0, #FFFDBC)"/>
<path d="M215.745 73.4712C211.105 73.4712 207.017 72.5065 203.48 70.5771C199.943 68.6477 197.186 66.0063 195.211 62.6529C193.236 59.2535 192.248 55.3718 192.248 51.0078C192.248 46.8275 193.213 43.1295 195.142 39.9139C197.072 36.6523 199.667 34.0798 202.929 32.1964C206.236 30.313 209.888 29.3713 213.885 29.3713C217.973 29.3713 221.625 30.313 224.841 32.1964C228.056 34.0339 230.583 36.5605 232.42 39.7761C234.304 42.9917 235.246 46.6437 235.246 50.7321V54.2464H210.026C208.878 54.2464 207.775 54.3842 206.718 54.2464C205.662 54.1085 204.605 54.4301 203.549 54.2464C204.1 57.0026 205.455 59.2535 207.614 60.9992C209.819 62.6988 212.621 63.5487 216.021 63.5487C218.639 63.5487 220.982 63.0204 223.049 61.9638C225.162 60.9073 226.885 59.5981 228.217 58.0362L230.836 68.7856C228.768 70.3474 226.426 71.5188 223.807 72.2998C221.235 73.0807 218.547 73.4712 215.745 73.4712ZM203.273 47.0112C203.273 47.0112 207.821 47.0112 210.026 47.0112H217.33H220.982H224.221C223.532 44.5306 222.268 42.4404 220.431 41.0164C218.639 39.5923 216.411 38.8803 213.747 38.8803C211.22 38.8803 209.015 39.6153 207.132 41.0853C205.294 42.5094 204.008 44.4847 203.273 47.0112Z" fill="var(--fill-0, #FFFDBC)"/>
<path d="M241.755 72.093V40.2584H234.038V30.7494H241.962V16.9682H253.538V30.7494H261.738V40.2584H253.745V72.093H241.755Z" fill="var(--fill-0, #FFFDBC)"/>
<path d="M267.802 72.093V40.2584H260.084V30.7494H268.008V16.9682H279.585V30.7494H287.784V40.2584H279.791V72.093H267.802Z" fill="var(--fill-0, #FFFDBC)"/>
<path d="M308.42 73.4712C303.78 73.4712 299.691 72.5065 296.154 70.5771C292.617 68.6477 289.861 66.0063 287.886 62.6529C285.91 59.2535 284.923 55.3718 284.923 51.0078C284.923 46.8275 285.887 43.1295 287.817 39.9139C289.746 36.6523 292.341 34.0798 295.603 32.1964C298.911 30.313 302.563 29.3713 306.559 29.3713C310.648 29.3713 314.3 30.313 317.515 32.1964C320.731 34.0339 323.257 36.5605 325.095 39.7761C326.978 42.9917 327.92 46.6437 327.92 50.7321V54.2464H302.7C301.552 54.2464 300.449 54.3842 299.393 54.2464C298.336 54.1085 297.28 54.4301 296.223 54.2464C296.774 57.0026 298.13 59.2535 300.289 60.9992C302.494 62.6988 305.296 63.5487 308.695 63.5487C311.314 63.5487 313.656 63.0204 315.724 61.9638C317.837 60.9073 319.559 59.5981 320.892 58.0362L323.51 68.7856C321.443 70.3474 319.1 71.5188 316.482 72.2998C313.909 73.0807 311.222 73.4712 308.42 73.4712ZM295.948 47.0112H302.7H310.004C311.291 47.0112 313.656 47.0112 313.656 47.0112H316.895C316.206 44.5306 314.943 42.4404 313.105 41.0164C311.314 39.5923 309.086 38.8803 306.421 38.8803C303.895 38.8803 301.69 39.6153 299.806 41.0853C297.969 42.5094 296.683 44.4847 295.948 47.0112Z" fill="var(--fill-0, #FFFDBC)"/>
</g>
<g id="Group 4">
<path id="Vector 19" d="M26.0966 70.7718L43.6526 60.6358C58.3039 52.1769 57.0234 49.4958 57.0234 49.4958C57.0234 49.4958 57.0234 46.5509 43.6526 37.9916L26.0966 28.2199L19.871 39.0028L38.0454 49.4958L19.871 59.9888L26.0966 70.7718Z" fill="url(#paint0_linear_0_6)"/>
<path id="Rectangle 30_2" d="M45.7342 55.814H57.3621V80.6202H44.1838V68.9742C44.1838 66.9221 44.3405 64.873 44.6526 62.8447L45.7342 55.814Z" fill="url(#paint1_linear_0_6)"/>
<path id="Rectangle 31" d="M45.7369 41.8605H57.3648V17.0543H44.1865V28.7004C44.1865 30.7525 44.3432 32.8016 44.6552 34.8298L45.7369 41.8605Z" fill="url(#paint2_linear_0_6)"/>
<g id="Vector 22" filter="url(#filter1_d_0_6)">
<path d="M57.6111 60.3531C52.3816 57.3338 45.3185 59.0591 44.2402 67.0385L45.3019 54.832C45.6271 51.0931 45.6285 47.333 45.3059 43.5938L44.2402 31.2391C46.8282 41.5907 54.5919 39.4341 57.6111 37.7089L75.1671 27.9371L81.3926 38.7201L63.2182 49.2131L81.3926 59.7061L75.1671 70.489L57.6111 60.3531Z" fill="url(#paint3_radial_0_6)"/>
</g>
</g>
</g>
<defs>
<filter id="filter0_d_0_6" x="76.8993" y="10.7666" width="257.222" height="68.9061" filterUnits="userSpaceOnUse" color-interpolation-filters="sRGB">
<feFlood flood-opacity="0" result="BackgroundImageFix"/>
<feColorMatrix in="SourceAlpha" type="matrix" values="0 0 0 0 0 0 0 0 0 0 0 0 0 0 0 0 0 0 127 0" result="hardAlpha"/>
<feOffset/>
<feGaussianBlur stdDeviation="3.10078"/>
<feComposite in2="hardAlpha" operator="out"/>
<feColorMatrix type="matrix" values="0 0 0 0 0 0 0 0 0 0 0 0 0 0 0 0 0 0 0.25 0"/>
<feBlend mode="normal" in2="BackgroundImageFix" result="effect1_dropShadow_0_6"/>
<feBlend mode="normal" in="SourceGraphic" in2="effect1_dropShadow_0_6" result="shape"/>
</filter>
<filter id="filter1_d_0_6" x="41.1395" y="21.7356" width="49.5555" height="54.955" filterUnits="userSpaceOnUse" color-interpolation-filters="sRGB">
<feFlood flood-opacity="0" result="BackgroundImageFix"/>
<feColorMatrix in="SourceAlpha" type="matrix" values="0 0 0 0 0 0 0 0 0 0 0 0 0 0 0 0 0 0 127 0" result="hardAlpha"/>
<feOffset dx="3.10078"/>
<feGaussianBlur stdDeviation="3.10078"/>
<feComposite in2="hardAlpha" operator="out"/>
<feColorMatrix type="matrix" values="0 0 0 0 0 0 0 0 0 0 0 0 0 0 0 0 0 0 0.25 0"/>
<feBlend mode="normal" in2="BackgroundImageFix" result="effect1_dropShadow_0_6"/>
<feBlend mode="normal" in="SourceGraphic" in2="effect1_dropShadow_0_6" result="shape"/>
</filter>
<linearGradient id="paint0_linear_0_6" x1="19.871" y1="49.4958" x2="57.0518" y2="49.4958" gradientUnits="userSpaceOnUse">
<stop stop-color="#620000"/>
<stop offset="1" stop-color="#3E0118"/>
</linearGradient>
<linearGradient id="paint1_linear_0_6" x1="50.6684" y1="39.6507" x2="50.8072" y2="80.6201" gradientUnits="userSpaceOnUse">
<stop stop-color="#E20025"/>
<stop offset="1" stop-color="#FFFDBC"/>
</linearGradient>
<linearGradient id="paint2_linear_0_6" x1="50.6711" y1="58.0239" x2="50.8099" y2="17.0544" gradientUnits="userSpaceOnUse">
<stop stop-color="#E20025"/>
<stop offset="1" stop-color="#FFFDBC"/>
</linearGradient>
<radialGradient id="paint3_radial_0_6" cx="0" cy="0" r="1" gradientUnits="userSpaceOnUse" gradientTransform="translate(76.3375 49.505) rotate(-179.479) scale(32.0986 75.2963)">
<stop offset="0.288217" stop-color="#FFFDBC"/>
<stop offset="1" stop-color="#E20025"/>
</radialGradient>
</defs>
</svg>
