<svg preserveAspectRatio="none" width="100%" height="100%" overflow="visible" style="display: block;" viewBox="0 0 53 12" fill="none" xmlns="http://www.w3.org/2000/svg">
<g id="logo-top-right">
<rect width="53" height="12" fill="var(--fill-0, black)" style="fill:black;fill-opacity:1;"/>
<path id="TDK-Logo" d="M5.84473 7.98926L5.08691 10.8271L3 7.22949L5.84473 7.98926ZM12.3027 10.8271H5.08691L8.69043 8.75L12.3027 10.8271ZM12.3027 10.8271L11.5352 7.98926L14.3799 7.22949L12.3027 10.8271ZM25.1709 3.08691H20.707V10.8271H18.0674V3.08691H13.5938V1H25.1709V3.08691ZM32.1338 1.00293C35.3438 1.00293 37.4032 3.12235 37.4033 5.91113C37.4033 9.022 34.8758 10.8271 32.1992 10.8271H25.7607V1C25.7871 1.00002 30.5936 1.00293 32.1338 1.00293ZM40.6221 10.8271H37.9834V1H40.6221V10.8271ZM44.123 5.60547C44.0576 5.66792 43.9732 5.70995 43.8984 5.73145C43.9732 5.75115 44.0577 5.808 44.123 5.85645L50 10.8252H46.2568L40.6973 5.73145L45.7695 1H49.3164L44.123 5.60547ZM28.2783 8.75879C28.2982 8.75881 30.1139 8.76065 32.0498 8.75879C34.1368 8.75411 34.9414 7.52769 34.9414 5.91113C34.9414 4.43836 34.3051 3.02336 31.8906 3.02148C29.6126 3.01964 28.2953 3.02146 28.2783 3.02148V8.75879ZM11.5352 7.98926L8.69043 8.75L10.7773 5.15234L11.5352 7.98926ZM8.69043 8.75L5.84473 7.98926L6.6123 5.15234L8.69043 8.75ZM6.6123 5.15234L3 7.22949L6.6123 1V5.15234ZM14.3799 7.22949L10.7773 5.15234V1L14.3799 7.22949ZM10.7773 5.15234H6.6123L8.69043 3.07715L10.7773 5.15234ZM10.7773 1L8.69043 3.07715L6.6123 1H10.7773Z" fill="var(--fill-0, #0D0D0D)" style="fill:#0D0D0D;fill:color(display-p3 0.0500 0.0500 0.0500);fill-opacity:1;"/>
</g>
</svg>
