<svg preserveAspectRatio="none" width="100%" height="100%" overflow="visible" style="display: block;" viewBox="0 0 550 342" fill="none" xmlns="http://www.w3.org/2000/svg">
<g id="Subtract-base" filter="url(#filter0_n_0_112)">
<path d="M530 0C541.046 7.40896e-06 550 8.95431 550 20V322C550 333.046 541.046 342 530 342H20C8.95431 342 8.05375e-08 333.046 0 322V20C2.83492e-06 8.95431 8.95431 0 20 0H530ZM143 310C136.373 310 131 315.373 131 322C131 328.627 136.373 334 143 334C149.627 334 155 328.627 155 322C155 315.373 149.627 310 143 310ZM407 310C400.373 310 395 315.373 395 322C395 328.627 400.373 334 407 334C413.627 334 419 328.627 419 322C419 315.373 413.627 310 407 310ZM192 307C189.239 307 187 309.239 187 312V322C187 324.761 189.239 327 192 327H202C204.761 327 207 324.761 207 322V312C207 309.239 204.761 307 202 307H192ZM348 307C345.239 307 343 309.239 343 312V322C343 324.761 345.239 327 348 327H358C360.761 327 363 324.761 363 322V312C363 309.239 360.761 307 358 307H348ZM208 196H342V120H208V196ZM154 114C133.013 114 116 131.013 116 152C116 172.987 133.013 190 154 190C174.987 190 192 172.987 192 152C192 131.013 174.987 114 154 114ZM396 114C375.013 114 358 131.013 358 152C358 172.987 375.013 190 396 190C416.987 190 434 172.987 434 152C434 131.013 416.987 114 396 114Z" fill="var(--fill-0, #2E2A2A)" style="fill:#2E2A2A;fill:color(display-p3 0.1786 0.1664 0.1664);fill-opacity:1;"/>
</g>
<defs>
<filter id="filter0_n_0_112" x="0" y="0" width="550" height="342" filterUnits="userSpaceOnUse" color-interpolation-filters="sRGB">
<feFlood flood-opacity="0" result="BackgroundImageFix"/>
<feBlend mode="normal" in="SourceGraphic" in2="BackgroundImageFix" result="shape"/>
<feTurbulence type="fractalNoise" baseFrequency="2 2" stitchTiles="stitch" numOctaves="3" result="noise" seed="3514" />
<feColorMatrix in="noise" type="luminanceToAlpha" result="alphaNoise" />
<feComponentTransfer in="alphaNoise" result="coloredNoise1">
<feFuncA type="discrete" tableValues="0 0 0 0 0 0 0 0 0 0 0 0 1 1 1 1 1 1 1 1 1 1 1 1 1 1 1 1 1 1 1 1 1 1 1 1 1 1 0 0 0 0 0 0 0 0 0 0 0 0 0 0 0 0 0 0 0 0 0 0 0 0 0 0 0 0 0 0 0 0 0 0 0 0 0 0 0 0 0 0 0 0 0 0 0 0 0 0 0 0 0 0 0 0 0 0 0 0 0 0 "/>
</feComponentTransfer>
<feComposite operator="in" in2="shape" in="coloredNoise1" result="noise1Clipped" />
<feFlood flood-color="rgba(0, 0, 0, 0.6)" result="color1Flood" />
<feComposite operator="in" in2="noise1Clipped" in="color1Flood" result="color1" />
<feMerge result="effect1_noise_0_112">
<feMergeNode in="shape" />
<feMergeNode in="color1" />
</feMerge>
</filter>
</defs>
</svg>
