<svg preserveAspectRatio="none" width="100%" height="100%" overflow="visible" style="display: block;" viewBox="0 0 308.098 29.3926" fill="none" xmlns="http://www.w3.org/2000/svg">
<path id="subtract-pattern" d="M14.4883 26.0508C16.5521 27.7277 19.1824 28.7344 22.0488 28.7344C23.3882 28.7344 24.6751 28.5113 25.8779 28.1064V29.3926H13.4395V26.0508H14.4883ZM39.3174 29.3926H26.8779V27.7188C27.8651 27.2841 28.7829 26.7223 29.6094 26.0508H39.3174V29.3926ZM278.488 26.0508C279.315 26.7223 280.233 27.2841 281.22 27.7188V29.3926H268.78V26.0508H278.488ZM294.658 29.3926H282.22V28.1064C283.423 28.5113 284.709 28.7344 286.049 28.7344C288.915 28.7344 291.546 27.7277 293.609 26.0508H294.658V29.3926ZM11.1299 21.709C11.4887 22.4954 11.9268 23.2376 12.4395 23.9219V25.0508H0V21.709H11.1299ZM275.13 21.709C275.697 22.9512 276.468 24.0793 277.402 25.0508H268.78V21.709H275.13ZM308.098 25.0508H295.658V23.9219C296.171 23.2376 296.609 22.4954 296.968 21.709H308.098V25.0508ZM39.3174 25.0508H30.6953C31.6299 24.0793 32.4009 22.9512 32.9678 21.709H39.3174V25.0508ZM10.0654 17.3672C10.126 18.5332 10.3554 19.6543 10.7256 20.709H0V17.3672H10.0654ZM67.1953 18.9199C68.0103 19.9046 69.195 20.5726 70.5371 20.709H67.1953V18.9199ZM93.0732 20.709H81.5596C83.524 20.5097 85.1508 19.1723 85.7744 17.3672H93.0732V20.709ZM222.323 17.3672C222.947 19.172 224.573 20.5094 226.537 20.709H215.024V17.3672H222.323ZM240.902 20.709H237.56C238.902 20.5728 240.087 19.9049 240.902 18.9199V20.709ZM274.065 17.3672C274.126 18.5332 274.355 19.6543 274.726 20.709H268.78V17.3672H274.065ZM308.098 20.709H297.371C297.741 19.6543 297.972 18.5333 298.032 17.3672H308.098V20.709ZM39.3174 20.709H33.3711C33.7413 19.6543 33.9716 18.5333 34.0322 17.3672H39.3174V20.709ZM10.6357 13.0254C10.2923 14.0828 10.0897 15.2038 10.0547 16.3672H0V13.0254H10.6357ZM66.0488 15.7344C66.0488 15.9488 66.0637 16.1599 66.0898 16.3672H53.7559V13.0254H66.0488V15.7344ZM93.0732 16.3672H86.0078C86.034 16.1599 86.0488 15.9488 86.0488 15.7344V13.0254H93.0732V16.3672ZM222.049 15.7344C222.049 15.9488 222.064 16.1599 222.09 16.3672H215.024V13.0254H222.049V15.7344ZM254.342 16.3672H242.008C242.034 16.1599 242.049 15.9488 242.049 15.7344V13.0254H254.342V16.3672ZM274.636 13.0254C274.292 14.0828 274.09 15.2038 274.055 16.3672H268.78V13.0254H274.636ZM308.098 16.3672H298.043C298.008 15.2037 297.804 14.0829 297.461 13.0254H308.098V16.3672ZM39.3174 16.3672H34.043C34.008 15.2037 33.8044 14.0829 33.4609 13.0254H39.3174V16.3672ZM12.4395 9.5459C11.869 10.3073 11.3883 11.1392 11.0098 12.0254H0V8.68359H12.4395V9.5459ZM66.0488 12.0254H53.7559V8.68359H66.0488V12.0254ZM93.0732 12.0254H86.0488V8.68359H93.0732V12.0254ZM222.049 12.0254H215.024V8.68359H222.049V12.0254ZM254.342 12.0254H242.049V8.68359H254.342V12.0254ZM277.15 8.68359C276.263 9.66377 275.537 10.7917 275.01 12.0254H268.78V8.68359H277.15ZM308.098 12.0254H297.088C296.709 11.1392 296.229 10.3072 295.658 9.5459V8.68359H308.098V12.0254ZM39.3174 12.0254H33.0879C32.561 10.7917 31.8346 9.66377 30.9473 8.68359H39.3174V12.0254ZM25.8779 5.36133C24.6751 4.95652 23.3881 4.73438 22.0488 4.73438C19.0347 4.73438 16.2825 5.84842 14.1748 7.68359H13.4395V4.3418H25.8779V5.36133ZM66.1953 4.53027C66.0999 4.91598 66.0488 5.3192 66.0488 5.73438V7.68359H53.7559V4.3418H66.1953V4.53027ZM93.0732 7.68359H86.0488V5.73438C86.0488 5.25103 85.9795 4.7839 85.8516 4.3418H93.0732V7.68359ZM222.246 4.3418C222.118 4.78391 222.049 5.25102 222.049 5.73438V7.68359H215.024V4.3418H222.246ZM254.342 7.68359H242.049V5.73438C242.049 5.31921 241.998 4.91597 241.902 4.53027V4.3418H254.342V7.68359ZM281.22 5.74902C280.105 6.23961 279.081 6.89467 278.175 7.68359H268.78V4.3418H281.22V5.74902ZM294.658 7.68359H293.923C291.815 5.84839 289.063 4.73439 286.049 4.73438C284.71 4.73438 283.422 4.95654 282.22 5.36133V4.3418H294.658V7.68359ZM39.3174 7.68359H29.9229C29.0168 6.89467 27.9923 6.23962 26.8779 5.74902V4.3418H39.3174V7.68359ZM93.0732 3.3418H85.4395C84.5912 1.78845 82.9434 0.734398 81.0488 0.734375H80.6338V0H93.0732V3.3418ZM227.463 0.734375H227.049C225.154 0.734375 223.506 1.78846 222.658 3.3418H215.024V0H227.463V0.734375ZM79.6338 0.734375H71.0488C69.4983 0.734375 68.1124 1.44004 67.1953 2.54785V0H79.6338V0.734375ZM240.902 2.54785C239.985 1.44002 238.599 0.734394 237.049 0.734375H228.464V0H240.902V2.54785Z" fill="var(--fill-0, #100F0F)" style="fill:#100F0F;fill:color(display-p3 0.0627 0.0588 0.0588);fill-opacity:1;"/>
</svg>
