<svg preserveAspectRatio="none" width="100%" height="100%" overflow="visible" style="display: block;" viewBox="0 0 47 19" fill="none" xmlns="http://www.w3.org/2000/svg">
<g id="Group 10">
<g id="Union" filter="url(#filter0_di_0_180)">
<path d="M9 18C4.02944 18 1.74837e-06 13.9706 1.12054e-06 9C6.86003e-07 4.02944 4.02944 1.22135e-06 9 7.86805e-07C13.9706 5.45541e-07 18 4.02944 18 9C18 13.9706 13.9706 18 9 18ZM7.10645 3.46582C7.61047 3.29341 8.14472 3.18527 8.7002 3.15723L8.7002 3.15039L8.54981 3.15039L8.54981 1.06445C7.81251 1.10562 7.1028 1.24792 6.43262 1.47656L7.23438 3.41211L7.10645 3.46582ZM10.7656 3.41211L11.5684 1.47656C10.9433 1.26325 10.2838 1.12624 9.59961 1.0752L9.59961 3.18164C10.0484 3.22734 10.4816 3.32449 10.8945 3.46582L10.7656 3.41211ZM14.2139 3.00098C13.6697 2.52767 13.0613 2.12702 12.4023 1.81445L11.5967 3.75586L11.5781 3.74902C11.9897 3.9515 12.3745 4.19985 12.7246 4.48926L14.2139 3.00098ZM5.27637 4.48926C5.62653 4.19987 6.01117 3.95146 6.42285 3.74902L6.40332 3.75586L5.59863 1.81445C4.93961 2.12697 4.33131 2.52769 3.78711 3.00098L5.27637 4.48926ZM16.0986 5.42285C15.7678 4.76757 15.3508 4.1636 14.8594 3.62793L13.3721 5.11523C13.6732 5.45389 13.9357 5.82736 14.1523 6.22949L16.0986 5.42285ZM3.84863 6.22949C4.06539 5.82732 4.3277 5.45391 4.62891 5.11524L3.1416 3.62793C2.65012 4.16362 2.23327 4.76753 1.90234 5.42285L3.84863 6.22949ZM8.7002 11.7002L9.59961 11.7002L9.59961 12.8545C10.5877 12.702 11.4532 12.1782 12.0498 11.4307L11.165 10.8525L11.6572 10.0986L12.5273 10.667C12.7666 10.1616 12.9004 9.59632 12.9004 9C12.9004 8.27965 12.7038 7.60543 12.3633 7.02637L11.5449 7.67481L10.9863 6.96973L11.8213 6.30859C11.2416 5.70106 10.4681 5.28053 9.59961 5.14649L9.59961 6.29981L8.7002 6.29981L8.7002 5.11328C7.64625 5.19344 6.71027 5.6915 6.05664 6.44336L7.13477 7.14746L6.64356 7.90137L5.54785 7.18652C5.26259 7.72843 5.09961 8.34506 5.09961 9C5.09961 9.78787 5.33458 10.5206 5.73633 11.1338L6.75488 10.3252L7.31445 11.0303L6.31348 11.8252C6.94525 12.4261 7.7774 12.8175 8.7002 12.8877L8.7002 11.7002ZM16.9248 8.40039C16.8687 7.6488 16.7115 6.92595 16.4609 6.24707L14.5166 7.05176C14.6681 7.48067 14.7717 7.9322 14.8193 8.40039L16.9248 8.40039ZM3.18067 8.40039C3.22835 7.93209 3.33284 7.48076 3.48438 7.05176L1.54004 6.24707C1.28939 6.92604 1.13127 7.64869 1.0752 8.40039L3.18067 8.40039ZM3.39746 10.6836C3.26491 10.2419 3.1814 9.77866 3.15723 9.29981L1.05762 9.29981C1.08592 10.0628 1.22154 10.7979 1.4502 11.4912L3.39746 10.6836ZM16.5508 11.4912C16.7794 10.7979 16.9141 10.0627 16.9424 9.2998L14.8428 9.2998C14.8186 9.77857 14.736 10.242 14.6035 10.6836L16.5508 11.4912ZM15 14.2139C15.4909 13.6494 15.9034 13.0155 16.2207 12.3281L14.2793 11.5244C14.0722 11.9567 13.8129 12.3591 13.5107 12.7246L15 14.2139ZM4.49024 12.7256C4.18778 12.3599 3.92892 11.9569 3.72168 11.5244L1.78027 12.3281C2.09767 13.0155 2.51 13.6494 3.00098 14.2139L4.49024 12.7256ZM12.5049 16.1367C13.1887 15.8003 13.8174 15.3692 14.373 14.8594L12.8857 13.3721C12.527 13.6912 12.1288 13.9666 11.6992 14.1904L12.5049 16.1367ZM6.30176 14.1904C5.87211 13.9666 5.47408 13.6911 5.11524 13.3721L3.62793 14.8594C4.18368 15.3692 4.81223 15.8003 5.4961 16.1367L6.30176 14.1904ZM9.59961 16.9258C10.3237 16.8718 11.0207 16.7223 11.6777 16.4873L10.8721 14.543C10.466 14.6801 10.0402 14.7745 9.59961 14.8193L9.59961 16.9258ZM8.54981 14.8311C8.05677 14.7935 7.58119 14.6952 7.12988 14.543L6.32324 16.4873C7.02516 16.7383 7.77248 16.8931 8.54981 16.9365L8.54981 14.8311Z" fill="var(--fill-0, black)" style="fill:black;fill-opacity:1;"/>
</g>
<g id="Union_2" filter="url(#filter1_di_0_180)">
<path d="M37 18C32.0294 18 28 13.9706 28 9C28 4.02944 32.0294 1.22135e-06 37 7.86805e-07C41.9706 5.45541e-07 46 4.02944 46 9C46 13.9706 41.9706 18 37 18ZM35.1064 3.46582C35.6105 3.29341 36.1447 3.18527 36.7002 3.15723L36.7002 3.15039L36.5498 3.15039L36.5498 1.06445C35.8125 1.10562 35.1028 1.24792 34.4326 1.47656L35.2344 3.41211L35.1064 3.46582ZM38.7656 3.41211L39.5684 1.47656C38.9433 1.26325 38.2838 1.12624 37.5996 1.0752L37.5996 3.18164C38.0484 3.22734 38.4816 3.32449 38.8945 3.46582L38.7656 3.41211ZM42.2139 3.00098C41.6697 2.52767 41.0613 2.12702 40.4023 1.81445L39.5967 3.75586L39.5781 3.74902C39.9897 3.9515 40.3745 4.19985 40.7246 4.48926L42.2139 3.00098ZM33.2764 4.48926C33.6265 4.19987 34.0112 3.95146 34.4229 3.74902L34.4033 3.75586L33.5986 1.81445C32.9396 2.12697 32.3313 2.52769 31.7871 3.00098L33.2764 4.48926ZM44.0986 5.42285C43.7678 4.76757 43.3508 4.1636 42.8594 3.62793L41.3721 5.11523C41.6732 5.45389 41.9357 5.82736 42.1523 6.22949L44.0986 5.42285ZM31.8486 6.22949C32.0654 5.82732 32.3277 5.45391 32.6289 5.11524L31.1416 3.62793C30.6501 4.16362 30.2333 4.76753 29.9023 5.42285L31.8486 6.22949ZM36.7002 11.7002L37.5996 11.7002L37.5996 12.8545C38.5877 12.702 39.4532 12.1782 40.0498 11.4307L39.165 10.8525L39.6572 10.0986L40.5273 10.667C40.7666 10.1616 40.9004 9.59632 40.9004 9C40.9004 8.27965 40.7038 7.60543 40.3633 7.02637L39.5449 7.67481L38.9863 6.96973L39.8213 6.30859C39.2416 5.70106 38.4681 5.28053 37.5996 5.14649L37.5996 6.29981L36.7002 6.29981L36.7002 5.11328C35.6462 5.19344 34.7103 5.6915 34.0566 6.44336L35.1348 7.14746L34.6436 7.90137L33.5479 7.18652C33.2626 7.72843 33.0996 8.34506 33.0996 9C33.0996 9.78787 33.3346 10.5206 33.7363 11.1338L34.7549 10.3252L35.3145 11.0303L34.3135 11.8252C34.9452 12.4261 35.7774 12.8175 36.7002 12.8877L36.7002 11.7002ZM44.9248 8.40039C44.8687 7.6488 44.7115 6.92595 44.4609 6.24707L42.5166 7.05176C42.6681 7.48067 42.7717 7.9322 42.8193 8.40039L44.9248 8.40039ZM31.1807 8.40039C31.2283 7.93209 31.3328 7.48076 31.4844 7.05176L29.54 6.24707C29.2894 6.92604 29.1313 7.64869 29.0752 8.40039L31.1807 8.40039ZM31.3975 10.6836C31.2649 10.2419 31.1814 9.77866 31.1572 9.29981L29.0576 9.29981C29.0859 10.0628 29.2215 10.7979 29.4502 11.4912L31.3975 10.6836ZM44.5508 11.4912C44.7794 10.7979 44.9141 10.0627 44.9424 9.2998L42.8428 9.2998C42.8186 9.77857 42.736 10.242 42.6035 10.6836L44.5508 11.4912ZM43 14.2139C43.4909 13.6494 43.9034 13.0155 44.2207 12.3281L42.2793 11.5244C42.0722 11.9567 41.8129 12.3591 41.5107 12.7246L43 14.2139ZM32.4902 12.7256C32.1878 12.3599 31.9289 11.9569 31.7217 11.5244L29.7803 12.3281C30.0977 13.0155 30.51 13.6494 31.001 14.2139L32.4902 12.7256ZM40.5049 16.1367C41.1887 15.8003 41.8174 15.3692 42.373 14.8594L40.8857 13.3721C40.527 13.6912 40.1288 13.9666 39.6992 14.1904L40.5049 16.1367ZM34.3018 14.1904C33.8721 13.9666 33.4741 13.6911 33.1152 13.3721L31.6279 14.8594C32.1837 15.3692 32.8122 15.8003 33.4961 16.1367L34.3018 14.1904ZM37.5996 16.9258C38.3237 16.8718 39.0207 16.7223 39.6777 16.4873L38.8721 14.543C38.466 14.6801 38.0402 14.7745 37.5996 14.8193L37.5996 16.9258ZM36.5498 14.8311C36.0568 14.7935 35.5812 14.6952 35.1299 14.543L34.3232 16.4873C35.0252 16.7383 35.7725 16.8931 36.5498 16.9365L36.5498 14.8311Z" fill="var(--fill-0, black)" style="fill:black;fill-opacity:1;"/>
</g>
</g>
<defs>
<filter id="filter0_di_0_180" x="1.12054e-06" y="7.86805e-07" width="19" height="19" filterUnits="userSpaceOnUse" color-interpolation-filters="sRGB">
<feFlood flood-opacity="0" result="BackgroundImageFix"/>
<feColorMatrix in="SourceAlpha" type="matrix" values="0 0 0 0 0 0 0 0 0 0 0 0 0 0 0 0 0 0 127 0" result="hardAlpha"/>
<feOffset dx="0.5" dy="0.5"/>
<feGaussianBlur stdDeviation="0.25"/>
<feComposite in2="hardAlpha" operator="out"/>
<feColorMatrix type="matrix" values="0 0 0 0 0 0 0 0 0 0 0 0 0 0 0 0 0 0 0.25 0"/>
<feBlend mode="normal" in2="BackgroundImageFix" result="effect1_dropShadow_0_180"/>
<feBlend mode="normal" in="SourceGraphic" in2="effect1_dropShadow_0_180" result="shape"/>
<feColorMatrix in="SourceAlpha" type="matrix" values="0 0 0 0 0 0 0 0 0 0 0 0 0 0 0 0 0 0 127 0" result="hardAlpha"/>
<feOffset dx="0.5"/>
<feComposite in2="hardAlpha" operator="arithmetic" k2="-1" k3="1"/>
<feColorMatrix type="matrix" values="0 0 0 0 1 0 0 0 0 1 0 0 0 0 1 0 0 0 0.25 0"/>
<feBlend mode="normal" in2="shape" result="effect2_innerShadow_0_180"/>
</filter>
<filter id="filter1_di_0_180" x="28" y="7.86805e-07" width="19" height="19" filterUnits="userSpaceOnUse" color-interpolation-filters="sRGB">
<feFlood flood-opacity="0" result="BackgroundImageFix"/>
<feColorMatrix in="SourceAlpha" type="matrix" values="0 0 0 0 0 0 0 0 0 0 0 0 0 0 0 0 0 0 127 0" result="hardAlpha"/>
<feOffset dx="0.5" dy="0.5"/>
<feGaussianBlur stdDeviation="0.25"/>
<feComposite in2="hardAlpha" operator="out"/>
<feColorMatrix type="matrix" values="0 0 0 0 0 0 0 0 0 0 0 0 0 0 0 0 0 0 0.25 0"/>
<feBlend mode="normal" in2="BackgroundImageFix" result="effect1_dropShadow_0_180"/>
<feBlend mode="normal" in="SourceGraphic" in2="effect1_dropShadow_0_180" result="shape"/>
<feColorMatrix in="SourceAlpha" type="matrix" values="0 0 0 0 0 0 0 0 0 0 0 0 0 0 0 0 0 0 127 0" result="hardAlpha"/>
<feOffset dx="0.5"/>
<feComposite in2="hardAlpha" operator="arithmetic" k2="-1" k3="1"/>
<feColorMatrix type="matrix" values="0 0 0 0 1 0 0 0 0 1 0 0 0 0 1 0 0 0 0.25 0"/>
<feBlend mode="normal" in2="shape" result="effect2_innerShadow_0_180"/>
</filter>
</defs>
</svg>
