<svg preserveAspectRatio="none" width="100%" height="100%" overflow="visible" style="display: block;" viewBox="0 0 356 226" fill="none" xmlns="http://www.w3.org/2000/svg">
<g id="Back tape" filter="url(#filter0_di_0_168)">
<path d="M1 6.99999C1 3.134 4.13401 0 8 0H344C347.866 0 351 3.13401 351 7V213C351 216.866 347.866 220 344 220H307.958C302.867 220 297.989 217.957 294.417 214.329L272.257 191.816C269.8 189.321 268.081 186.195 267.289 182.784L265.413 174.704C263.415 166.094 255.744 160 246.905 160H107.335C98.6163 160 91.0166 165.934 88.902 174.392L86.7371 183.052C85.9267 186.293 84.2758 189.264 81.951 191.664L60.0993 214.22C56.5203 217.915 51.5964 220 46.4527 220H8C4.13401 220 1 216.866 1 213V6.99999Z" fill="var(--fill-0, #161212)" style="fill:#161212;fill:color(display-p3 0.0864 0.0716 0.0716);fill-opacity:1;"/>
</g>
<defs>
<filter id="filter0_di_0_168" x="0" y="0" width="356" height="226" filterUnits="userSpaceOnUse" color-interpolation-filters="sRGB">
<feFlood flood-opacity="0" result="BackgroundImageFix"/>
<feColorMatrix in="SourceAlpha" type="matrix" values="0 0 0 0 0 0 0 0 0 0 0 0 0 0 0 0 0 0 127 0" result="hardAlpha"/>
<feOffset dx="2" dy="3"/>
<feGaussianBlur stdDeviation="1.5"/>
<feComposite in2="hardAlpha" operator="out"/>
<feColorMatrix type="matrix" values="0 0 0 0 0 0 0 0 0 0 0 0 0 0 0 0 0 0 0.43 0"/>
<feBlend mode="normal" in2="BackgroundImageFix" result="effect1_dropShadow_0_168"/>
<feBlend mode="normal" in="SourceGraphic" in2="effect1_dropShadow_0_168" result="shape"/>
<feColorMatrix in="SourceAlpha" type="matrix" values="0 0 0 0 0 0 0 0 0 0 0 0 0 0 0 0 0 0 127 0" result="hardAlpha"/>
<feOffset dx="1" dy="1"/>
<feGaussianBlur stdDeviation="0.5"/>
<feComposite in2="hardAlpha" operator="arithmetic" k2="-1" k3="1"/>
<feColorMatrix type="matrix" values="0 0 0 0 1 0 0 0 0 1 0 0 0 0 1 0 0 0 0.1 0"/>
<feBlend mode="normal" in2="shape" result="effect2_innerShadow_0_168"/>
</filter>
</defs>
</svg>
